<?xml version="1.0" encoding="UTF-8" standalone="no"?>
<!DOCTYPE svg PUBLIC "-//W3C//DTD SVG 1.1//EN"
 "http://www.w3.org/Graphics/SVG/1.1/DTD/svg11.dtd">
<!-- Generated by graphviz version 3.0.0 (20220226.1711)
 -->
<!-- Pages: 1 -->
<svg width="129pt" height="388pt"
 viewBox="0.00 0.00 129.00 387.70" xmlns="http://www.w3.org/2000/svg" xmlns:xlink="http://www.w3.org/1999/xlink">
<g id="graph0" class="graph" transform="scale(1 1) rotate(0) translate(4 383.7)">
<polygon fill="white" stroke="transparent" points="-4,4 -4,-383.7 125,-383.7 125,4 -4,4"/>
<!-- fake -->
<g id="node1" class="node">
<title>fake</title>
</g>
<!-- s0 -->
<g id="node4" class="node">
<title>s0</title>
<ellipse fill="none" stroke="black" cx="27" cy="-288.7" rx="27" ry="18"/>
<text text-anchor="middle" x="27" y="-285" font-family="Times New Roman,serif" font-size="14.00">s0</text>
</g>
<!-- fake&#45;&gt;s0 -->
<g id="edge1" class="edge">
<title>fake&#45;&gt;s0</title>
<path fill="none" stroke="black" stroke-width="2" d="M27,-343.51C27,-335.49 27,-325.74 27,-316.77"/>
<polygon fill="black" stroke="black" stroke-width="2" points="30.5,-316.73 27,-306.73 23.5,-316.73 30.5,-316.73"/>
</g>
<!-- s2 -->
<g id="node2" class="node">
<title>s2</title>
<ellipse fill="none" stroke="black" cx="60" cy="-114.7" rx="27" ry="18"/>
<text text-anchor="middle" x="60" y="-111" font-family="Times New Roman,serif" font-size="14.00">s2</text>
</g>
<!-- s3 -->
<g id="node3" class="node">
<title>s3</title>
<ellipse fill="none" stroke="black" cx="60" cy="-22.85" rx="18.72" ry="18.72"/>
<ellipse fill="none" stroke="black" cx="60" cy="-22.85" rx="22.7" ry="22.7"/>
<text text-anchor="middle" x="60" y="-19.15" font-family="Times New Roman,serif" font-size="14.00">s3</text>
</g>
<!-- s2&#45;&gt;s3 -->
<g id="edge9" class="edge">
<title>s2&#45;&gt;s3</title>
<path fill="none" stroke="black" d="M60,-96.37C60,-84.91 60,-69.54 60,-55.9"/>
<polygon fill="black" stroke="black" points="63.5,-55.9 60,-45.9 56.5,-55.9 63.5,-55.9"/>
<text text-anchor="middle" x="64" y="-67.5" font-family="Times New Roman,serif" font-size="14.00">b</text>
</g>
<!-- s1 -->
<g id="node5" class="node">
<title>s1</title>
<ellipse fill="none" stroke="black" cx="69" cy="-201.7" rx="27" ry="18"/>
<text text-anchor="middle" x="69" y="-198" font-family="Times New Roman,serif" font-size="14.00">s1</text>
</g>
<!-- s2&#45;&gt;s1 -->
<g id="edge6" class="edge">
<title>s2&#45;&gt;s1</title>
<path fill="none" stroke="black" d="M61.82,-132.87C63.05,-144.5 64.7,-160.12 66.11,-173.43"/>
<polygon fill="black" stroke="black" points="62.65,-173.92 67.18,-183.5 69.61,-173.18 62.65,-173.92"/>
<text text-anchor="middle" x="68.5" y="-154.5" font-family="Times New Roman,serif" font-size="14.00">a</text>
</g>
<!-- s3&#45;&gt;s0 -->
<g id="edge3" class="edge">
<title>s3&#45;&gt;s0</title>
<path fill="none" stroke="black" d="M47.83,-42.42C39.28,-56.62 28.59,-77.05 24,-96.7 10.65,-153.87 17.19,-223.3 22.51,-260.7"/>
<polygon fill="black" stroke="black" points="19.08,-261.43 24.02,-270.8 26,-260.39 19.08,-261.43"/>
<text text-anchor="middle" x="20" y="-154.5" font-family="Times New Roman,serif" font-size="14.00">b</text>
</g>
<!-- s3&#45;&gt;s1 -->
<g id="edge7" class="edge">
<title>s3&#45;&gt;s1</title>
<path fill="none" stroke="black" d="M72.17,-42.42C80.72,-56.62 91.41,-77.05 96,-96.7 102.3,-123.67 92.21,-154.34 82.62,-175.35"/>
<polygon fill="black" stroke="black" points="79.37,-174.02 78.17,-184.54 85.68,-177.07 79.37,-174.02"/>
<text text-anchor="middle" x="100.5" y="-111" font-family="Times New Roman,serif" font-size="14.00">a</text>
</g>
<!-- s0&#45;&gt;s0 -->
<g id="edge2" class="edge">
<title>s0&#45;&gt;s0</title>
<path fill="none" stroke="black" d="M52.44,-295.39C63.03,-295.85 72,-293.62 72,-288.7 72,-285.47 68.14,-283.4 62.49,-282.48"/>
<polygon fill="black" stroke="black" points="62.6,-278.99 52.44,-282.01 62.27,-285.98 62.6,-278.99"/>
<text text-anchor="middle" x="76" y="-285" font-family="Times New Roman,serif" font-size="14.00">b</text>
</g>
<!-- s0&#45;&gt;s1 -->
<g id="edge4" class="edge">
<title>s0&#45;&gt;s1</title>
<path fill="none" stroke="black" d="M35.1,-271.31C41.14,-259.08 49.51,-242.14 56.42,-228.15"/>
<polygon fill="black" stroke="black" points="59.63,-229.55 60.93,-219.04 53.36,-226.45 59.63,-229.55"/>
<text text-anchor="middle" x="53.5" y="-241.5" font-family="Times New Roman,serif" font-size="14.00">a</text>
</g>
<!-- s1&#45;&gt;s2 -->
<g id="edge8" class="edge">
<title>s1&#45;&gt;s2</title>
<path fill="none" stroke="black" d="M58.88,-184.94C55.71,-179.13 52.61,-172.34 51,-165.7 49.17,-158.15 49.67,-149.89 51.1,-142.29"/>
<polygon fill="black" stroke="black" points="54.53,-143.01 53.51,-132.47 47.73,-141.35 54.53,-143.01"/>
<text text-anchor="middle" x="55" y="-154.5" font-family="Times New Roman,serif" font-size="14.00">b</text>
</g>
<!-- s1&#45;&gt;s1 -->
<g id="edge5" class="edge">
<title>s1&#45;&gt;s1</title>
<path fill="none" stroke="black" d="M93.53,-209.45C104.51,-210.19 114,-207.6 114,-201.7 114,-197.73 109.72,-195.26 103.57,-194.29"/>
<polygon fill="black" stroke="black" points="103.65,-190.79 93.53,-193.94 103.41,-197.79 103.65,-190.79"/>
<text text-anchor="middle" x="117.5" y="-198" font-family="Times New Roman,serif" font-size="14.00">a</text>
</g>
</g>
</svg>
