<?xml version="1.0" encoding="UTF-8" standalone="no"?>
<!DOCTYPE svg PUBLIC "-//W3C//DTD SVG 1.1//EN"
 "http://www.w3.org/Graphics/SVG/1.1/DTD/svg11.dtd">
<!-- Generated by graphviz version 3.0.0 (20220226.1711)
 -->
<!-- Pages: 1 -->
<svg width="83pt" height="223pt"
 viewBox="0.00 0.00 82.85 223.39" xmlns="http://www.w3.org/2000/svg" xmlns:xlink="http://www.w3.org/1999/xlink">
<g id="graph0" class="graph" transform="scale(1 1) rotate(0) translate(4 219.39)">
<polygon fill="white" stroke="transparent" points="-4,4 -4,-219.39 78.85,-219.39 78.85,4 -4,4"/>
<!-- fake -->
<g id="node1" class="node">
<title>fake</title>
</g>
<!-- s0 -->
<g id="node2" class="node">
<title>s0</title>
<ellipse fill="none" stroke="black" cx="27" cy="-119.54" rx="18.72" ry="18.72"/>
<ellipse fill="none" stroke="black" cx="27" cy="-119.54" rx="22.7" ry="22.7"/>
<text text-anchor="middle" x="27" y="-115.84" font-family="Times New Roman,serif" font-size="14.00">s0</text>
</g>
<!-- fake&#45;&gt;s0 -->
<g id="edge1" class="edge">
<title>fake&#45;&gt;s0</title>
<path fill="none" stroke="black" stroke-width="2" d="M27,-179.18C27,-171.39 27,-161.92 27,-152.88"/>
<polygon fill="black" stroke="black" stroke-width="2" points="30.5,-152.59 27,-142.59 23.5,-152.59 30.5,-152.59"/>
</g>
<!-- s1 -->
<g id="node3" class="node">
<title>s1</title>
<ellipse fill="none" stroke="black" cx="27" cy="-22.85" rx="18.72" ry="18.72"/>
<ellipse fill="none" stroke="black" cx="27" cy="-22.85" rx="22.7" ry="22.7"/>
<text text-anchor="middle" x="27" y="-19.15" font-family="Times New Roman,serif" font-size="14.00">s1</text>
</g>
<!-- s0&#45;&gt;s1 -->
<g id="edge2" class="edge">
<title>s0&#45;&gt;s1</title>
<path fill="none" stroke="black" d="M27,-96.58C27,-84.6 27,-69.53 27,-56.22"/>
<polygon fill="black" stroke="black" points="30.5,-56.02 27,-46.02 23.5,-56.02 30.5,-56.02"/>
<text text-anchor="middle" x="30.5" y="-67.5" font-family="Times New Roman,serif" font-size="14.00">a</text>
</g>
<!-- s1&#45;&gt;s1 -->
<g id="edge3" class="edge">
<title>s1&#45;&gt;s1</title>
<path fill="none" stroke="black" d="M48.44,-31.63C58.75,-32.71 67.85,-29.79 67.85,-22.85 67.85,-18.4 64.11,-15.61 58.72,-14.45"/>
<polygon fill="black" stroke="black" points="58.56,-10.95 48.44,-14.07 58.3,-17.94 58.56,-10.95"/>
<text text-anchor="middle" x="71.35" y="-19.15" font-family="Times New Roman,serif" font-size="14.00">a</text>
</g>
</g>
</svg>
