<?xml version="1.0" encoding="UTF-8" standalone="no"?>
<!DOCTYPE svg PUBLIC "-//W3C//DTD SVG 1.1//EN"
 "http://www.w3.org/Graphics/SVG/1.1/DTD/svg11.dtd">
<!-- Generated by graphviz version 3.0.0 (20220226.1711)
 -->
<!-- Pages: 1 -->
<svg width="138pt" height="386pt"
 viewBox="0.00 0.00 138.00 386.00" xmlns="http://www.w3.org/2000/svg" xmlns:xlink="http://www.w3.org/1999/xlink">
<g id="graph0" class="graph" transform="scale(1 1) rotate(0) translate(4 382)">
<polygon fill="white" stroke="transparent" points="-4,4 -4,-382 134,-382 134,4 -4,4"/>
<!-- fake0 -->
<g id="node1" class="node">
<title>fake0</title>
</g>
<!-- 0 -->
<g id="node4" class="node">
<title>0</title>
<ellipse fill="none" stroke="black" cx="58" cy="-287" rx="27" ry="18"/>
<text text-anchor="middle" x="58" y="-283.3" font-family="Times New Roman,serif" font-size="14.00">0</text>
</g>
<!-- fake0&#45;&gt;0 -->
<g id="edge1" class="edge">
<title>fake0&#45;&gt;0</title>
<path fill="none" stroke="black" stroke-width="2" d="M58,-341.81C58,-333.79 58,-324.05 58,-315.07"/>
<polygon fill="black" stroke="black" stroke-width="2" points="61.5,-315.03 58,-305.03 54.5,-315.03 61.5,-315.03"/>
</g>
<!-- 2 -->
<g id="node2" class="node">
<title>2</title>
<ellipse fill="none" stroke="black" cx="27" cy="-113" rx="27" ry="18"/>
<text text-anchor="middle" x="27" y="-109.3" font-family="Times New Roman,serif" font-size="14.00">2</text>
</g>
<!-- 1 -->
<g id="node3" class="node">
<title>1</title>
<ellipse fill="none" stroke="black" cx="27" cy="-200" rx="27" ry="18"/>
<text text-anchor="middle" x="27" y="-196.3" font-family="Times New Roman,serif" font-size="14.00">1</text>
</g>
<!-- 2&#45;&gt;1 -->
<g id="edge4" class="edge">
<title>2&#45;&gt;1</title>
<path fill="none" stroke="black" d="M27,-131.18C27,-142.81 27,-158.42 27,-171.73"/>
<polygon fill="black" stroke="black" points="23.5,-171.8 27,-181.8 30.5,-171.8 23.5,-171.8"/>
<text text-anchor="middle" x="47" y="-152.8" font-family="Times New Roman,serif" font-size="14.00">epsilon</text>
</g>
<!-- 3 -->
<g id="node5" class="node">
<title>3</title>
<ellipse fill="none" stroke="black" cx="58" cy="-22" rx="18" ry="18"/>
<ellipse fill="none" stroke="black" cx="58" cy="-22" rx="22" ry="22"/>
<text text-anchor="middle" x="58" y="-18.3" font-family="Times New Roman,serif" font-size="14.00">3</text>
</g>
<!-- 2&#45;&gt;3 -->
<g id="edge5" class="edge">
<title>2&#45;&gt;3</title>
<path fill="none" stroke="black" d="M28.63,-94.97C29.92,-85.12 32.17,-72.62 36,-62 37.45,-57.97 39.3,-53.86 41.3,-49.91"/>
<polygon fill="black" stroke="black" points="44.43,-51.49 46.15,-41.04 38.29,-48.13 44.43,-51.49"/>
<text text-anchor="middle" x="56" y="-65.8" font-family="Times New Roman,serif" font-size="14.00">epsilon</text>
</g>
<!-- 1&#45;&gt;2 -->
<g id="edge6" class="edge">
<title>1&#45;&gt;2</title>
<path fill="none" stroke="black" d="M20.57,-182.16C18.71,-176.48 16.93,-170.04 16,-164 14.81,-156.27 15.74,-147.94 17.47,-140.35"/>
<polygon fill="black" stroke="black" points="20.89,-141.14 20.21,-130.57 14.14,-139.26 20.89,-141.14"/>
<text text-anchor="middle" x="19.5" y="-152.8" font-family="Times New Roman,serif" font-size="14.00">a</text>
</g>
<!-- 0&#45;&gt;1 -->
<g id="edge2" class="edge">
<title>0&#45;&gt;1</title>
<path fill="none" stroke="black" d="M46.57,-270.65C42.67,-264.77 38.64,-257.83 36,-251 33.23,-243.84 31.3,-235.78 29.96,-228.25"/>
<polygon fill="black" stroke="black" points="33.39,-227.47 28.44,-218.1 26.46,-228.51 33.39,-227.47"/>
<text text-anchor="middle" x="56" y="-239.8" font-family="Times New Roman,serif" font-size="14.00">epsilon</text>
</g>
<!-- 0&#45;&gt;3 -->
<g id="edge3" class="edge">
<title>0&#45;&gt;3</title>
<path fill="none" stroke="black" d="M68.12,-270.25C71.29,-264.43 74.39,-257.64 76,-251 95.76,-169.36 94.02,-144.04 76,-62 75.18,-58.29 73.98,-54.5 72.57,-50.83"/>
<polygon fill="black" stroke="black" points="75.7,-49.24 68.5,-41.47 69.28,-52.03 75.7,-49.24"/>
<text text-anchor="middle" x="110" y="-152.8" font-family="Times New Roman,serif" font-size="14.00">epsilon</text>
</g>
</g>
</svg>
