<?xml version="1.0" encoding="UTF-8" standalone="no"?>
<!DOCTYPE svg PUBLIC "-//W3C//DTD SVG 1.1//EN"
 "http://www.w3.org/Graphics/SVG/1.1/DTD/svg11.dtd">
<!-- Generated by graphviz version 3.0.0 (20220226.1711)
 -->
<!-- Pages: 1 -->
<svg width="134pt" height="813pt"
 viewBox="0.00 0.00 134.00 813.00" xmlns="http://www.w3.org/2000/svg" xmlns:xlink="http://www.w3.org/1999/xlink">
<g id="graph0" class="graph" transform="scale(1 1) rotate(0) translate(4 809)">
<polygon fill="white" stroke="transparent" points="-4,4 -4,-809 130,-809 130,4 -4,4"/>
<!-- fake0 -->
<g id="node1" class="node">
<title>fake0</title>
</g>
<!-- 0 -->
<g id="node2" class="node">
<title>0</title>
<ellipse fill="none" stroke="black" cx="62" cy="-714" rx="27" ry="18"/>
<text text-anchor="middle" x="62" y="-710.3" font-family="Times New Roman,serif" font-size="14.00">0</text>
</g>
<!-- fake0&#45;&gt;0 -->
<g id="edge1" class="edge">
<title>fake0&#45;&gt;0</title>
<path fill="none" stroke="black" stroke-width="2" d="M62,-768.81C62,-760.79 62,-751.05 62,-742.07"/>
<polygon fill="black" stroke="black" stroke-width="2" points="65.5,-742.03 62,-732.03 58.5,-742.03 65.5,-742.03"/>
</g>
<!-- 1 -->
<g id="node9" class="node">
<title>1</title>
<ellipse fill="none" stroke="black" cx="62" cy="-627" rx="27" ry="18"/>
<text text-anchor="middle" x="62" y="-623.3" font-family="Times New Roman,serif" font-size="14.00">1</text>
</g>
<!-- 0&#45;&gt;1 -->
<g id="edge2" class="edge">
<title>0&#45;&gt;1</title>
<path fill="none" stroke="black" d="M62,-695.8C62,-684.16 62,-668.55 62,-655.24"/>
<polygon fill="black" stroke="black" points="65.5,-655.18 62,-645.18 58.5,-655.18 65.5,-655.18"/>
<text text-anchor="middle" x="65.5" y="-666.8" font-family="Times New Roman,serif" font-size="14.00">a</text>
</g>
<!-- 4 -->
<g id="node3" class="node">
<title>4</title>
<ellipse fill="none" stroke="black" cx="27" cy="-366" rx="27" ry="18"/>
<text text-anchor="middle" x="27" y="-362.3" font-family="Times New Roman,serif" font-size="14.00">4</text>
</g>
<!-- 7 -->
<g id="node11" class="node">
<title>7</title>
<ellipse fill="none" stroke="black" cx="62" cy="-279" rx="27" ry="18"/>
<text text-anchor="middle" x="62" y="-275.3" font-family="Times New Roman,serif" font-size="14.00">7</text>
</g>
<!-- 4&#45;&gt;7 -->
<g id="edge8" class="edge">
<title>4&#45;&gt;7</title>
<path fill="none" stroke="black" d="M27.17,-347.73C27.81,-337.8 29.56,-325.3 34,-315 35.85,-310.7 38.38,-306.49 41.16,-302.57"/>
<polygon fill="black" stroke="black" points="44.07,-304.53 47.5,-294.5 38.57,-300.21 44.07,-304.53"/>
<text text-anchor="middle" x="54" y="-318.8" font-family="Times New Roman,serif" font-size="14.00">epsilon</text>
</g>
<!-- 2 -->
<g id="node4" class="node">
<title>2</title>
<ellipse fill="none" stroke="black" cx="62" cy="-540" rx="27" ry="18"/>
<text text-anchor="middle" x="62" y="-536.3" font-family="Times New Roman,serif" font-size="14.00">2</text>
</g>
<!-- 3 -->
<g id="node6" class="node">
<title>3</title>
<ellipse fill="none" stroke="black" cx="27" cy="-453" rx="27" ry="18"/>
<text text-anchor="middle" x="27" y="-449.3" font-family="Times New Roman,serif" font-size="14.00">3</text>
</g>
<!-- 2&#45;&gt;3 -->
<g id="edge4" class="edge">
<title>2&#45;&gt;3</title>
<path fill="none" stroke="black" d="M47.5,-524.5C42.42,-518.6 37.2,-511.43 34,-504 30.98,-497 29.21,-488.98 28.18,-481.44"/>
<polygon fill="black" stroke="black" points="31.64,-480.88 27.17,-471.27 24.67,-481.57 31.64,-480.88"/>
<text text-anchor="middle" x="54" y="-492.8" font-family="Times New Roman,serif" font-size="14.00">epsilon</text>
</g>
<!-- 5 -->
<g id="node7" class="node">
<title>5</title>
<ellipse fill="none" stroke="black" cx="99" cy="-453" rx="27" ry="18"/>
<text text-anchor="middle" x="99" y="-449.3" font-family="Times New Roman,serif" font-size="14.00">5</text>
</g>
<!-- 2&#45;&gt;5 -->
<g id="edge5" class="edge">
<title>2&#45;&gt;5</title>
<path fill="none" stroke="black" d="M69.13,-522.61C74.37,-510.58 81.6,-493.98 87.63,-480.13"/>
<polygon fill="black" stroke="black" points="90.98,-481.19 91.76,-470.63 84.56,-478.4 90.98,-481.19"/>
<text text-anchor="middle" x="102" y="-492.8" font-family="Times New Roman,serif" font-size="14.00">epsilon</text>
</g>
<!-- 10 -->
<g id="node5" class="node">
<title>10</title>
<ellipse fill="none" stroke="black" cx="62" cy="-18" rx="27" ry="18"/>
<text text-anchor="middle" x="62" y="-14.3" font-family="Times New Roman,serif" font-size="14.00">10</text>
</g>
<!-- 3&#45;&gt;4 -->
<g id="edge6" class="edge">
<title>3&#45;&gt;4</title>
<path fill="none" stroke="black" d="M27,-434.8C27,-423.16 27,-407.55 27,-394.24"/>
<polygon fill="black" stroke="black" points="30.5,-394.18 27,-384.18 23.5,-394.18 30.5,-394.18"/>
<text text-anchor="middle" x="30.5" y="-405.8" font-family="Times New Roman,serif" font-size="14.00">a</text>
</g>
<!-- 6 -->
<g id="node12" class="node">
<title>6</title>
<ellipse fill="none" stroke="black" cx="99" cy="-366" rx="27" ry="18"/>
<text text-anchor="middle" x="99" y="-362.3" font-family="Times New Roman,serif" font-size="14.00">6</text>
</g>
<!-- 5&#45;&gt;6 -->
<g id="edge7" class="edge">
<title>5&#45;&gt;6</title>
<path fill="none" stroke="black" d="M99,-434.8C99,-423.16 99,-407.55 99,-394.24"/>
<polygon fill="black" stroke="black" points="102.5,-394.18 99,-384.18 95.5,-394.18 102.5,-394.18"/>
<text text-anchor="middle" x="103" y="-405.8" font-family="Times New Roman,serif" font-size="14.00">b</text>
</g>
<!-- 8 -->
<g id="node8" class="node">
<title>8</title>
<ellipse fill="none" stroke="black" cx="62" cy="-192" rx="27" ry="18"/>
<text text-anchor="middle" x="62" y="-188.3" font-family="Times New Roman,serif" font-size="14.00">8</text>
</g>
<!-- 9 -->
<g id="node10" class="node">
<title>9</title>
<ellipse fill="none" stroke="black" cx="62" cy="-105" rx="27" ry="18"/>
<text text-anchor="middle" x="62" y="-101.3" font-family="Times New Roman,serif" font-size="14.00">9</text>
</g>
<!-- 8&#45;&gt;9 -->
<g id="edge11" class="edge">
<title>8&#45;&gt;9</title>
<path fill="none" stroke="black" d="M62,-173.8C62,-162.16 62,-146.55 62,-133.24"/>
<polygon fill="black" stroke="black" points="65.5,-133.18 62,-123.18 58.5,-133.18 65.5,-133.18"/>
<text text-anchor="middle" x="66" y="-144.8" font-family="Times New Roman,serif" font-size="14.00">b</text>
</g>
<!-- 1&#45;&gt;2 -->
<g id="edge3" class="edge">
<title>1&#45;&gt;2</title>
<path fill="none" stroke="black" d="M62,-608.8C62,-597.16 62,-581.55 62,-568.24"/>
<polygon fill="black" stroke="black" points="65.5,-568.18 62,-558.18 58.5,-568.18 65.5,-568.18"/>
<text text-anchor="middle" x="66" y="-579.8" font-family="Times New Roman,serif" font-size="14.00">b</text>
</g>
<!-- 9&#45;&gt;10 -->
<g id="edge12" class="edge">
<title>9&#45;&gt;10</title>
<path fill="none" stroke="black" d="M62,-86.8C62,-75.16 62,-59.55 62,-46.24"/>
<polygon fill="black" stroke="black" points="65.5,-46.18 62,-36.18 58.5,-46.18 65.5,-46.18"/>
<text text-anchor="middle" x="66" y="-57.8" font-family="Times New Roman,serif" font-size="14.00">b</text>
</g>
<!-- 7&#45;&gt;8 -->
<g id="edge10" class="edge">
<title>7&#45;&gt;8</title>
<path fill="none" stroke="black" d="M62,-260.8C62,-249.16 62,-233.55 62,-220.24"/>
<polygon fill="black" stroke="black" points="65.5,-220.18 62,-210.18 58.5,-220.18 65.5,-220.18"/>
<text text-anchor="middle" x="66" y="-231.8" font-family="Times New Roman,serif" font-size="14.00">b</text>
</g>
<!-- 6&#45;&gt;7 -->
<g id="edge9" class="edge">
<title>6&#45;&gt;7</title>
<path fill="none" stroke="black" d="M91.87,-348.61C86.63,-336.58 79.4,-319.98 73.37,-306.13"/>
<polygon fill="black" stroke="black" points="76.44,-304.4 69.24,-296.63 70.02,-307.19 76.44,-304.4"/>
<text text-anchor="middle" x="102" y="-318.8" font-family="Times New Roman,serif" font-size="14.00">epsilon</text>
</g>
</g>
</svg>
