<?xml version="1.0" encoding="UTF-8" standalone="no"?>
<!DOCTYPE svg PUBLIC "-//W3C//DTD SVG 1.1//EN"
 "http://www.w3.org/Graphics/SVG/1.1/DTD/svg11.dtd">
<!-- Generated by graphviz version 3.0.0 (20220226.1711)
 -->
<!-- Pages: 1 -->
<svg width="198pt" height="647pt"
 viewBox="0.00 0.00 198.44 647.00" xmlns="http://www.w3.org/2000/svg" xmlns:xlink="http://www.w3.org/1999/xlink">
<g id="graph0" class="graph" transform="scale(1 1) rotate(0) translate(4 643)">
<polygon fill="white" stroke="transparent" points="-4,4 -4,-643 194.44,-643 194.44,4 -4,4"/>
<!-- fake0 -->
<g id="node1" class="node">
<title>fake0</title>
</g>
<!-- 0 -->
<g id="node5" class="node">
<title>0</title>
<ellipse fill="none" stroke="black" cx="58.44" cy="-548" rx="27" ry="18"/>
<text text-anchor="middle" x="58.44" y="-544.3" font-family="Times New Roman,serif" font-size="14.00">0</text>
</g>
<!-- fake0&#45;&gt;0 -->
<g id="edge1" class="edge">
<title>fake0&#45;&gt;0</title>
<path fill="none" stroke="black" stroke-width="2" d="M58.44,-602.81C58.44,-594.79 58.44,-585.05 58.44,-576.07"/>
<polygon fill="black" stroke="black" stroke-width="2" points="61.94,-576.03 58.44,-566.03 54.94,-576.03 61.94,-576.03"/>
</g>
<!-- 5 -->
<g id="node2" class="node">
<title>5</title>
<ellipse fill="none" stroke="black" cx="52.44" cy="-287" rx="27" ry="18"/>
<text text-anchor="middle" x="52.44" y="-283.3" font-family="Times New Roman,serif" font-size="14.00">5</text>
</g>
<!-- 5&#45;&gt;0 -->
<g id="edge2" class="edge">
<title>5&#45;&gt;0</title>
<path fill="none" stroke="black" d="M50.91,-305.31C48.81,-331.3 45.51,-381.96 47.44,-425 48.91,-457.57 52.56,-494.89 55.26,-519.58"/>
<polygon fill="black" stroke="black" points="51.8,-520.11 56.39,-529.66 58.76,-519.33 51.8,-520.11"/>
<text text-anchor="middle" x="67.44" y="-413.8" font-family="Times New Roman,serif" font-size="14.00">epsilon</text>
</g>
<!-- 6 -->
<g id="node10" class="node">
<title>6</title>
<ellipse fill="none" stroke="black" cx="52.44" cy="-200" rx="27" ry="18"/>
<text text-anchor="middle" x="52.44" y="-196.3" font-family="Times New Roman,serif" font-size="14.00">6</text>
</g>
<!-- 5&#45;&gt;6 -->
<g id="edge10" class="edge">
<title>5&#45;&gt;6</title>
<path fill="none" stroke="black" d="M52.44,-268.8C52.44,-257.16 52.44,-241.55 52.44,-228.24"/>
<polygon fill="black" stroke="black" points="55.94,-228.18 52.44,-218.18 48.94,-228.18 55.94,-228.18"/>
<text text-anchor="middle" x="55.94" y="-239.8" font-family="Times New Roman,serif" font-size="14.00">a</text>
</g>
<!-- 8 -->
<g id="node3" class="node">
<title>8</title>
<ellipse fill="none" stroke="black" cx="52.44" cy="-22" rx="18" ry="18"/>
<ellipse fill="none" stroke="black" cx="52.44" cy="-22" rx="22" ry="22"/>
<text text-anchor="middle" x="52.44" y="-18.3" font-family="Times New Roman,serif" font-size="14.00">8</text>
</g>
<!-- 4 -->
<g id="node4" class="node">
<title>4</title>
<ellipse fill="none" stroke="black" cx="163.44" cy="-374" rx="27" ry="18"/>
<text text-anchor="middle" x="163.44" y="-370.3" font-family="Times New Roman,serif" font-size="14.00">4</text>
</g>
<!-- 4&#45;&gt;5 -->
<g id="edge9" class="edge">
<title>4&#45;&gt;5</title>
<path fill="none" stroke="black" d="M151.7,-357.75C143.02,-347.13 130.48,-333.13 117.44,-323 107.16,-315.01 94.81,-307.86 83.65,-302.13"/>
<polygon fill="black" stroke="black" points="85.14,-298.96 74.62,-297.66 82.03,-305.23 85.14,-298.96"/>
<text text-anchor="middle" x="153.44" y="-326.8" font-family="Times New Roman,serif" font-size="14.00">epsilon</text>
</g>
<!-- 0&#45;&gt;5 -->
<g id="edge4" class="edge">
<title>0&#45;&gt;5</title>
<path fill="none" stroke="black" d="M48.48,-531.21C34.91,-508.68 11.3,-465.53 2.44,-425 -6.49,-384.11 16.96,-338.9 34.7,-312"/>
<polygon fill="black" stroke="black" points="37.68,-313.84 40.44,-303.61 31.91,-309.89 37.68,-313.84"/>
<text text-anchor="middle" x="22.44" y="-413.8" font-family="Times New Roman,serif" font-size="14.00">epsilon</text>
</g>
<!-- 1 -->
<g id="node6" class="node">
<title>1</title>
<ellipse fill="none" stroke="black" cx="91.44" cy="-461" rx="27" ry="18"/>
<text text-anchor="middle" x="91.44" y="-457.3" font-family="Times New Roman,serif" font-size="14.00">1</text>
</g>
<!-- 0&#45;&gt;1 -->
<g id="edge5" class="edge">
<title>0&#45;&gt;1</title>
<path fill="none" stroke="black" d="M64.96,-530.21C69.62,-518.22 75.97,-501.85 81.29,-488.16"/>
<polygon fill="black" stroke="black" points="84.58,-489.35 84.94,-478.76 78.06,-486.81 84.58,-489.35"/>
<text text-anchor="middle" x="96.44" y="-500.8" font-family="Times New Roman,serif" font-size="14.00">epsilon</text>
</g>
<!-- 3 -->
<g id="node8" class="node">
<title>3</title>
<ellipse fill="none" stroke="black" cx="163.44" cy="-461" rx="27" ry="18"/>
<text text-anchor="middle" x="163.44" y="-457.3" font-family="Times New Roman,serif" font-size="14.00">3</text>
</g>
<!-- 0&#45;&gt;3 -->
<g id="edge3" class="edge">
<title>0&#45;&gt;3</title>
<path fill="none" stroke="black" d="M80.27,-537.03C92.71,-530.79 108.21,-522.04 120.44,-512 129.79,-504.33 138.75,-494.47 146.05,-485.54"/>
<polygon fill="black" stroke="black" points="148.8,-487.71 152.24,-477.69 143.3,-483.37 148.8,-487.71"/>
<text text-anchor="middle" x="155.44" y="-500.8" font-family="Times New Roman,serif" font-size="14.00">epsilon</text>
</g>
<!-- 2 -->
<g id="node7" class="node">
<title>2</title>
<ellipse fill="none" stroke="black" cx="91.44" cy="-374" rx="27" ry="18"/>
<text text-anchor="middle" x="91.44" y="-370.3" font-family="Times New Roman,serif" font-size="14.00">2</text>
</g>
<!-- 1&#45;&gt;2 -->
<g id="edge6" class="edge">
<title>1&#45;&gt;2</title>
<path fill="none" stroke="black" d="M91.44,-442.8C91.44,-431.16 91.44,-415.55 91.44,-402.24"/>
<polygon fill="black" stroke="black" points="94.94,-402.18 91.44,-392.18 87.94,-402.18 94.94,-402.18"/>
<text text-anchor="middle" x="94.94" y="-413.8" font-family="Times New Roman,serif" font-size="14.00">a</text>
</g>
<!-- 2&#45;&gt;5 -->
<g id="edge8" class="edge">
<title>2&#45;&gt;5</title>
<path fill="none" stroke="black" d="M83.92,-356.61C78.31,-344.38 70.54,-327.44 64.12,-313.46"/>
<polygon fill="black" stroke="black" points="67.29,-311.97 59.94,-304.34 60.93,-314.89 67.29,-311.97"/>
<text text-anchor="middle" x="93.44" y="-326.8" font-family="Times New Roman,serif" font-size="14.00">epsilon</text>
</g>
<!-- 3&#45;&gt;4 -->
<g id="edge7" class="edge">
<title>3&#45;&gt;4</title>
<path fill="none" stroke="black" d="M163.44,-442.8C163.44,-431.16 163.44,-415.55 163.44,-402.24"/>
<polygon fill="black" stroke="black" points="166.94,-402.18 163.44,-392.18 159.94,-402.18 166.94,-402.18"/>
<text text-anchor="middle" x="167.44" y="-413.8" font-family="Times New Roman,serif" font-size="14.00">b</text>
</g>
<!-- 7 -->
<g id="node9" class="node">
<title>7</title>
<ellipse fill="none" stroke="black" cx="52.44" cy="-113" rx="27" ry="18"/>
<text text-anchor="middle" x="52.44" y="-109.3" font-family="Times New Roman,serif" font-size="14.00">7</text>
</g>
<!-- 7&#45;&gt;8 -->
<g id="edge12" class="edge">
<title>7&#45;&gt;8</title>
<path fill="none" stroke="black" d="M52.44,-94.84C52.44,-83.44 52.44,-68.13 52.44,-54.58"/>
<polygon fill="black" stroke="black" points="55.94,-54.19 52.44,-44.19 48.94,-54.19 55.94,-54.19"/>
<text text-anchor="middle" x="56.44" y="-65.8" font-family="Times New Roman,serif" font-size="14.00">b</text>
</g>
<!-- 6&#45;&gt;7 -->
<g id="edge11" class="edge">
<title>6&#45;&gt;7</title>
<path fill="none" stroke="black" d="M52.44,-181.8C52.44,-170.16 52.44,-154.55 52.44,-141.24"/>
<polygon fill="black" stroke="black" points="55.94,-141.18 52.44,-131.18 48.94,-141.18 55.94,-141.18"/>
<text text-anchor="middle" x="56.44" y="-152.8" font-family="Times New Roman,serif" font-size="14.00">b</text>
</g>
</g>
</svg>
