<?xml version="1.0" encoding="UTF-8" standalone="no"?>
<!DOCTYPE svg PUBLIC "-//W3C//DTD SVG 1.1//EN"
 "http://www.w3.org/Graphics/SVG/1.1/DTD/svg11.dtd">
<!-- Generated by graphviz version 3.0.0 (20220226.1711)
 -->
<!-- Pages: 1 -->
<svg width="164pt" height="475pt"
 viewBox="0.00 0.00 163.80 474.70" xmlns="http://www.w3.org/2000/svg" xmlns:xlink="http://www.w3.org/1999/xlink">
<g id="graph0" class="graph" transform="scale(1 1) rotate(0) translate(4 470.7)">
<polygon fill="white" stroke="transparent" points="-4,4 -4,-470.7 159.8,-470.7 159.8,4 -4,4"/>
<!-- fake -->
<g id="node1" class="node">
<title>fake</title>
</g>
<!-- s0 -->
<g id="node4" class="node">
<title>s0</title>
<ellipse fill="none" stroke="black" cx="107.8" cy="-375.7" rx="27" ry="18"/>
<text text-anchor="middle" x="107.8" y="-372" font-family="Times New Roman,serif" font-size="14.00">s0</text>
</g>
<!-- fake&#45;&gt;s0 -->
<g id="edge1" class="edge">
<title>fake&#45;&gt;s0</title>
<path fill="none" stroke="black" stroke-width="2" d="M107.8,-430.51C107.8,-422.49 107.8,-412.74 107.8,-403.77"/>
<polygon fill="black" stroke="black" stroke-width="2" points="111.3,-403.73 107.8,-393.73 104.3,-403.73 111.3,-403.73"/>
</g>
<!-- s4 -->
<g id="node2" class="node">
<title>s4</title>
<ellipse fill="none" stroke="black" cx="46.8" cy="-109.85" rx="18.72" ry="18.72"/>
<ellipse fill="none" stroke="black" cx="46.8" cy="-109.85" rx="22.7" ry="22.7"/>
<text text-anchor="middle" x="46.8" y="-106.15" font-family="Times New Roman,serif" font-size="14.00">s4</text>
</g>
<!-- s1 -->
<g id="node5" class="node">
<title>s1</title>
<ellipse fill="none" stroke="black" cx="67.8" cy="-288.7" rx="27" ry="18"/>
<text text-anchor="middle" x="67.8" y="-285" font-family="Times New Roman,serif" font-size="14.00">s1</text>
</g>
<!-- s4&#45;&gt;s1 -->
<g id="edge6" class="edge">
<title>s4&#45;&gt;s1</title>
<path fill="none" stroke="black" d="M32.09,-127.45C15.04,-148.8 -9.16,-187.02 3.8,-219.7 11.49,-239.1 27.63,-256.18 41.78,-268.37"/>
<polygon fill="black" stroke="black" points="39.85,-271.32 49.8,-274.97 44.3,-265.91 39.85,-271.32"/>
<text text-anchor="middle" x="7.3" y="-198" font-family="Times New Roman,serif" font-size="14.00">a</text>
</g>
<!-- s2 -->
<g id="node6" class="node">
<title>s2</title>
<ellipse fill="none" stroke="black" cx="101.8" cy="-18" rx="27" ry="18"/>
<text text-anchor="middle" x="101.8" y="-14.3" font-family="Times New Roman,serif" font-size="14.00">s2</text>
</g>
<!-- s4&#45;&gt;s2 -->
<g id="edge9" class="edge">
<title>s4&#45;&gt;s2</title>
<path fill="none" stroke="black" d="M58.16,-89.76C64.49,-79.19 72.52,-65.83 79.8,-54 81.9,-50.59 84.13,-47 86.33,-43.48"/>
<polygon fill="black" stroke="black" points="89.31,-45.32 91.66,-34.99 83.38,-41.6 89.31,-45.32"/>
<text text-anchor="middle" x="83.8" y="-57.8" font-family="Times New Roman,serif" font-size="14.00">b</text>
</g>
<!-- s3 -->
<g id="node3" class="node">
<title>s3</title>
<ellipse fill="none" stroke="black" cx="46.8" cy="-201.7" rx="27" ry="18"/>
<text text-anchor="middle" x="46.8" y="-198" font-family="Times New Roman,serif" font-size="14.00">s3</text>
</g>
<!-- s3&#45;&gt;s4 -->
<g id="edge11" class="edge">
<title>s3&#45;&gt;s4</title>
<path fill="none" stroke="black" d="M46.8,-183.37C46.8,-171.91 46.8,-156.54 46.8,-142.9"/>
<polygon fill="black" stroke="black" points="50.3,-142.9 46.8,-132.9 43.3,-142.9 50.3,-142.9"/>
<text text-anchor="middle" x="50.8" y="-154.5" font-family="Times New Roman,serif" font-size="14.00">b</text>
</g>
<!-- s3&#45;&gt;s1 -->
<g id="edge5" class="edge">
<title>s3&#45;&gt;s1</title>
<path fill="none" stroke="black" d="M51.01,-219.75C53.94,-231.6 57.91,-247.65 61.25,-261.17"/>
<polygon fill="black" stroke="black" points="57.86,-262.03 63.65,-270.9 64.65,-260.36 57.86,-262.03"/>
<text text-anchor="middle" x="61.3" y="-241.5" font-family="Times New Roman,serif" font-size="14.00">a</text>
</g>
<!-- s0&#45;&gt;s1 -->
<g id="edge2" class="edge">
<title>s0&#45;&gt;s1</title>
<path fill="none" stroke="black" d="M100.09,-358.31C94.33,-346.08 86.36,-329.14 79.78,-315.15"/>
<polygon fill="black" stroke="black" points="82.91,-313.59 75.49,-306.04 76.58,-316.57 82.91,-313.59"/>
<text text-anchor="middle" x="93.3" y="-328.5" font-family="Times New Roman,serif" font-size="14.00">a</text>
</g>
<!-- s0&#45;&gt;s2 -->
<g id="edge7" class="edge">
<title>s0&#45;&gt;s2</title>
<path fill="none" stroke="black" d="M120.02,-359.42C131.78,-343.14 147.8,-316.12 147.8,-289.7 147.8,-289.7 147.8,-289.7 147.8,-108.85 147.8,-84.23 133.94,-59.57 121.44,-42.33"/>
<polygon fill="black" stroke="black" points="123.96,-39.85 115.11,-34.03 118.39,-44.1 123.96,-39.85"/>
<text text-anchor="middle" x="151.8" y="-198" font-family="Times New Roman,serif" font-size="14.00">b</text>
</g>
<!-- s1&#45;&gt;s3 -->
<g id="edge10" class="edge">
<title>s1&#45;&gt;s3</title>
<path fill="none" stroke="black" d="M54.61,-272.73C50.29,-266.89 46.03,-259.87 43.8,-252.7 41.56,-245.47 41.19,-237.38 41.68,-229.85"/>
<polygon fill="black" stroke="black" points="45.18,-230.05 42.83,-219.72 38.22,-229.26 45.18,-230.05"/>
<text text-anchor="middle" x="47.8" y="-241.5" font-family="Times New Roman,serif" font-size="14.00">b</text>
</g>
<!-- s1&#45;&gt;s1 -->
<g id="edge3" class="edge">
<title>s1&#45;&gt;s1</title>
<path fill="none" stroke="black" d="M92.33,-296.45C103.31,-297.19 112.8,-294.6 112.8,-288.7 112.8,-284.73 108.52,-282.26 102.38,-281.29"/>
<polygon fill="black" stroke="black" points="102.45,-277.79 92.33,-280.94 102.21,-284.79 102.45,-277.79"/>
<text text-anchor="middle" x="116.3" y="-285" font-family="Times New Roman,serif" font-size="14.00">a</text>
</g>
<!-- s2&#45;&gt;s1 -->
<g id="edge4" class="edge">
<title>s2&#45;&gt;s1</title>
<path fill="none" stroke="black" d="M100.9,-36C98.9,-70.7 93.41,-152.1 82.8,-219.7 80.65,-233.41 77.41,-248.51 74.49,-260.98"/>
<polygon fill="black" stroke="black" points="71.07,-260.22 72.14,-270.76 77.88,-261.85 71.07,-260.22"/>
<text text-anchor="middle" x="94.3" y="-154.5" font-family="Times New Roman,serif" font-size="14.00">a</text>
</g>
<!-- s2&#45;&gt;s2 -->
<g id="edge8" class="edge">
<title>s2&#45;&gt;s2</title>
<path fill="none" stroke="black" d="M126.33,-25.75C137.31,-26.49 146.8,-23.91 146.8,-18 146.8,-14.03 142.52,-11.56 136.38,-10.59"/>
<polygon fill="black" stroke="black" points="136.45,-7.09 126.33,-10.25 136.21,-14.09 136.45,-7.09"/>
<text text-anchor="middle" x="150.8" y="-14.3" font-family="Times New Roman,serif" font-size="14.00">b</text>
</g>
</g>
</svg>
