<?xml version="1.0" encoding="UTF-8" standalone="no"?>
<!DOCTYPE svg PUBLIC "-//W3C//DTD SVG 1.1//EN"
 "http://www.w3.org/Graphics/SVG/1.1/DTD/svg11.dtd">
<!-- Generated by graphviz version 3.0.0 (20220226.1711)
 -->
<!-- Pages: 1 -->
<svg width="265pt" height="824pt"
 viewBox="0.00 0.00 265.00 824.00" xmlns="http://www.w3.org/2000/svg" xmlns:xlink="http://www.w3.org/1999/xlink">
<g id="graph0" class="graph" transform="scale(1 1) rotate(0) translate(4 820)">
<polygon fill="white" stroke="transparent" points="-4,4 -4,-820 261,-820 261,4 -4,4"/>
<!-- fake0 -->
<g id="node1" class="node">
<title>fake0</title>
</g>
<!-- 0 -->
<g id="node5" class="node">
<title>0</title>
<ellipse fill="none" stroke="black" cx="158" cy="-725" rx="27" ry="18"/>
<text text-anchor="middle" x="158" y="-721.3" font-family="Times New Roman,serif" font-size="14.00">0</text>
</g>
<!-- fake0&#45;&gt;0 -->
<g id="edge1" class="edge">
<title>fake0&#45;&gt;0</title>
<path fill="none" stroke="black" stroke-width="2" d="M158,-779.81C158,-771.79 158,-762.04 158,-753.07"/>
<polygon fill="black" stroke="black" stroke-width="2" points="161.5,-753.03 158,-743.03 154.5,-753.03 161.5,-753.03"/>
</g>
<!-- 3 -->
<g id="node2" class="node">
<title>3</title>
<ellipse fill="none" stroke="black" cx="99" cy="-464" rx="27" ry="18"/>
<text text-anchor="middle" x="99" y="-460.3" font-family="Times New Roman,serif" font-size="14.00">3</text>
</g>
<!-- 6 -->
<g id="node9" class="node">
<title>6</title>
<ellipse fill="none" stroke="black" cx="115" cy="-377" rx="27" ry="18"/>
<text text-anchor="middle" x="115" y="-373.3" font-family="Times New Roman,serif" font-size="14.00">6</text>
</g>
<!-- 3&#45;&gt;6 -->
<g id="edge10" class="edge">
<title>3&#45;&gt;6</title>
<path fill="none" stroke="black" d="M97.73,-445.68C97.42,-435.97 97.69,-423.69 100,-413 100.66,-409.93 101.59,-406.8 102.67,-403.73"/>
<polygon fill="black" stroke="black" points="105.98,-404.88 106.47,-394.3 99.49,-402.27 105.98,-404.88"/>
<text text-anchor="middle" x="120" y="-416.8" font-family="Times New Roman,serif" font-size="14.00">epsilon</text>
</g>
<!-- 9 -->
<g id="node3" class="node">
<title>9</title>
<ellipse fill="none" stroke="black" cx="158" cy="-116" rx="27" ry="18"/>
<text text-anchor="middle" x="158" y="-112.3" font-family="Times New Roman,serif" font-size="14.00">9</text>
</g>
<!-- 10 -->
<g id="node6" class="node">
<title>10</title>
<ellipse fill="none" stroke="black" cx="158" cy="-23.5" rx="19.5" ry="19.5"/>
<ellipse fill="none" stroke="black" cx="158" cy="-23.5" rx="23.5" ry="23.5"/>
<text text-anchor="middle" x="158" y="-19.8" font-family="Times New Roman,serif" font-size="14.00">10</text>
</g>
<!-- 9&#45;&gt;10 -->
<g id="edge14" class="edge">
<title>9&#45;&gt;10</title>
<path fill="none" stroke="black" d="M158,-97.97C158,-86.55 158,-71.13 158,-57.36"/>
<polygon fill="black" stroke="black" points="161.5,-57.25 158,-47.25 154.5,-57.25 161.5,-57.25"/>
<text text-anchor="middle" x="162" y="-68.8" font-family="Times New Roman,serif" font-size="14.00">b</text>
</g>
<!-- 8 -->
<g id="node4" class="node">
<title>8</title>
<ellipse fill="none" stroke="black" cx="158" cy="-203" rx="27" ry="18"/>
<text text-anchor="middle" x="158" y="-199.3" font-family="Times New Roman,serif" font-size="14.00">8</text>
</g>
<!-- 8&#45;&gt;9 -->
<g id="edge13" class="edge">
<title>8&#45;&gt;9</title>
<path fill="none" stroke="black" d="M158,-184.8C158,-173.16 158,-157.54 158,-144.23"/>
<polygon fill="black" stroke="black" points="161.5,-144.17 158,-134.17 154.5,-144.17 161.5,-144.17"/>
<text text-anchor="middle" x="162" y="-155.8" font-family="Times New Roman,serif" font-size="14.00">b</text>
</g>
<!-- 1 -->
<g id="node8" class="node">
<title>1</title>
<ellipse fill="none" stroke="black" cx="115" cy="-638" rx="27" ry="18"/>
<text text-anchor="middle" x="115" y="-634.3" font-family="Times New Roman,serif" font-size="14.00">1</text>
</g>
<!-- 0&#45;&gt;1 -->
<g id="edge3" class="edge">
<title>0&#45;&gt;1</title>
<path fill="none" stroke="black" d="M149.71,-707.61C143.52,-695.38 134.95,-678.44 127.88,-664.45"/>
<polygon fill="black" stroke="black" points="130.9,-662.68 123.27,-655.34 124.66,-665.84 130.9,-662.68"/>
<text text-anchor="middle" x="159" y="-677.8" font-family="Times New Roman,serif" font-size="14.00">epsilon</text>
</g>
<!-- 7 -->
<g id="node10" class="node">
<title>7</title>
<ellipse fill="none" stroke="black" cx="158" cy="-290" rx="27" ry="18"/>
<text text-anchor="middle" x="158" y="-286.3" font-family="Times New Roman,serif" font-size="14.00">7</text>
</g>
<!-- 0&#45;&gt;7 -->
<g id="edge2" class="edge">
<title>0&#45;&gt;7</title>
<path fill="none" stroke="black" d="M175.07,-710.65C192.49,-695.38 217,-668.64 217,-639 217,-639 217,-639 217,-376 217,-350.52 198.9,-327.19 182.75,-311.44"/>
<polygon fill="black" stroke="black" points="184.79,-308.56 175.07,-304.35 180.04,-313.7 184.79,-308.56"/>
<text text-anchor="middle" x="237" y="-503.8" font-family="Times New Roman,serif" font-size="14.00">epsilon</text>
</g>
<!-- 4 -->
<g id="node7" class="node">
<title>4</title>
<ellipse fill="none" stroke="black" cx="27" cy="-551" rx="27" ry="18"/>
<text text-anchor="middle" x="27" y="-547.3" font-family="Times New Roman,serif" font-size="14.00">4</text>
</g>
<!-- 5 -->
<g id="node12" class="node">
<title>5</title>
<ellipse fill="none" stroke="black" cx="27" cy="-464" rx="27" ry="18"/>
<text text-anchor="middle" x="27" y="-460.3" font-family="Times New Roman,serif" font-size="14.00">5</text>
</g>
<!-- 4&#45;&gt;5 -->
<g id="edge9" class="edge">
<title>4&#45;&gt;5</title>
<path fill="none" stroke="black" d="M27,-532.8C27,-521.16 27,-505.54 27,-492.23"/>
<polygon fill="black" stroke="black" points="30.5,-492.17 27,-482.17 23.5,-492.17 30.5,-492.17"/>
<text text-anchor="middle" x="31" y="-503.8" font-family="Times New Roman,serif" font-size="14.00">b</text>
</g>
<!-- 1&#45;&gt;4 -->
<g id="edge6" class="edge">
<title>1&#45;&gt;4</title>
<path fill="none" stroke="black" d="M92.25,-628.03C79.49,-622.12 63.99,-613.37 53,-602 46.45,-595.22 41.15,-586.46 37.09,-578.18"/>
<polygon fill="black" stroke="black" points="40.17,-576.5 32.88,-568.82 33.78,-579.37 40.17,-576.5"/>
<text text-anchor="middle" x="73" y="-590.8" font-family="Times New Roman,serif" font-size="14.00">epsilon</text>
</g>
<!-- 2 -->
<g id="node11" class="node">
<title>2</title>
<ellipse fill="none" stroke="black" cx="99" cy="-551" rx="27" ry="18"/>
<text text-anchor="middle" x="99" y="-547.3" font-family="Times New Roman,serif" font-size="14.00">2</text>
</g>
<!-- 1&#45;&gt;2 -->
<g id="edge7" class="edge">
<title>1&#45;&gt;2</title>
<path fill="none" stroke="black" d="M106.47,-620.69C103.88,-614.94 101.37,-608.33 100,-602 98.45,-594.81 97.82,-586.91 97.66,-579.55"/>
<polygon fill="black" stroke="black" points="101.16,-579.33 97.73,-569.31 94.16,-579.29 101.16,-579.33"/>
<text text-anchor="middle" x="120" y="-590.8" font-family="Times New Roman,serif" font-size="14.00">epsilon</text>
</g>
<!-- 6&#45;&gt;1 -->
<g id="edge5" class="edge">
<title>6&#45;&gt;1</title>
<path fill="none" stroke="black" d="M128.73,-392.88C133.23,-398.71 137.68,-405.74 140,-413 152.82,-452.99 152.82,-562 140,-602 138.69,-606.08 136.72,-610.09 134.43,-613.85"/>
<polygon fill="black" stroke="black" points="131.53,-611.89 128.73,-622.11 137.29,-615.87 131.53,-611.89"/>
<text text-anchor="middle" x="169" y="-503.8" font-family="Times New Roman,serif" font-size="14.00">epsilon</text>
</g>
<!-- 6&#45;&gt;7 -->
<g id="edge4" class="edge">
<title>6&#45;&gt;7</title>
<path fill="none" stroke="black" d="M123.29,-359.61C129.48,-347.38 138.05,-330.44 145.12,-316.45"/>
<polygon fill="black" stroke="black" points="148.34,-317.84 149.73,-307.34 142.1,-314.68 148.34,-317.84"/>
<text text-anchor="middle" x="159" y="-329.8" font-family="Times New Roman,serif" font-size="14.00">epsilon</text>
</g>
<!-- 7&#45;&gt;8 -->
<g id="edge12" class="edge">
<title>7&#45;&gt;8</title>
<path fill="none" stroke="black" d="M158,-271.8C158,-260.16 158,-244.54 158,-231.23"/>
<polygon fill="black" stroke="black" points="161.5,-231.17 158,-221.17 154.5,-231.17 161.5,-231.17"/>
<text text-anchor="middle" x="161.5" y="-242.8" font-family="Times New Roman,serif" font-size="14.00">a</text>
</g>
<!-- 2&#45;&gt;3 -->
<g id="edge8" class="edge">
<title>2&#45;&gt;3</title>
<path fill="none" stroke="black" d="M99,-532.8C99,-521.16 99,-505.54 99,-492.23"/>
<polygon fill="black" stroke="black" points="102.5,-492.17 99,-482.17 95.5,-492.17 102.5,-492.17"/>
<text text-anchor="middle" x="102.5" y="-503.8" font-family="Times New Roman,serif" font-size="14.00">a</text>
</g>
<!-- 5&#45;&gt;6 -->
<g id="edge11" class="edge">
<title>5&#45;&gt;6</title>
<path fill="none" stroke="black" d="M32.88,-446.18C37.19,-435.68 43.89,-422.43 53,-413 61.5,-404.2 72.7,-396.97 83.24,-391.41"/>
<polygon fill="black" stroke="black" points="84.83,-394.53 92.25,-386.96 81.73,-388.25 84.83,-394.53"/>
<text text-anchor="middle" x="73" y="-416.8" font-family="Times New Roman,serif" font-size="14.00">epsilon</text>
</g>
</g>
</svg>
