<?xml version="1.0" encoding="UTF-8" standalone="no"?>
<!DOCTYPE svg PUBLIC "-//W3C//DTD SVG 1.1//EN"
 "http://www.w3.org/Graphics/SVG/1.1/DTD/svg11.dtd">
<!-- Generated by graphviz version 3.0.0 (20220226.1711)
 -->
<!-- Pages: 1 -->
<svg width="236pt" height="824pt"
 viewBox="0.00 0.00 236.00 824.00" xmlns="http://www.w3.org/2000/svg" xmlns:xlink="http://www.w3.org/1999/xlink">
<g id="graph0" class="graph" transform="scale(1 1) rotate(0) translate(4 820)">
<polygon fill="white" stroke="transparent" points="-4,4 -4,-820 232,-820 232,4 -4,4"/>
<!-- fake0 -->
<g id="node1" class="node">
<title>fake0</title>
</g>
<!-- 0 -->
<g id="node8" class="node">
<title>0</title>
<ellipse fill="none" stroke="black" cx="35" cy="-725" rx="27" ry="18"/>
<text text-anchor="middle" x="35" y="-721.3" font-family="Times New Roman,serif" font-size="14.00">0</text>
</g>
<!-- fake0&#45;&gt;0 -->
<g id="edge1" class="edge">
<title>fake0&#45;&gt;0</title>
<path fill="none" stroke="black" stroke-width="2" d="M35,-779.81C35,-771.79 35,-762.04 35,-753.07"/>
<polygon fill="black" stroke="black" stroke-width="2" points="38.5,-753.03 35,-743.03 31.5,-753.03 38.5,-753.03"/>
</g>
<!-- 2 -->
<g id="node2" class="node">
<title>2</title>
<ellipse fill="none" stroke="black" cx="129" cy="-551" rx="27" ry="18"/>
<text text-anchor="middle" x="129" y="-547.3" font-family="Times New Roman,serif" font-size="14.00">2</text>
</g>
<!-- 3 -->
<g id="node7" class="node">
<title>3</title>
<ellipse fill="none" stroke="black" cx="129" cy="-464" rx="27" ry="18"/>
<text text-anchor="middle" x="129" y="-460.3" font-family="Times New Roman,serif" font-size="14.00">3</text>
</g>
<!-- 2&#45;&gt;3 -->
<g id="edge8" class="edge">
<title>2&#45;&gt;3</title>
<path fill="none" stroke="black" d="M129,-532.8C129,-521.16 129,-505.54 129,-492.23"/>
<polygon fill="black" stroke="black" points="132.5,-492.17 129,-482.17 125.5,-492.17 132.5,-492.17"/>
<text text-anchor="middle" x="132.5" y="-503.8" font-family="Times New Roman,serif" font-size="14.00">a</text>
</g>
<!-- 6 -->
<g id="node3" class="node">
<title>6</title>
<ellipse fill="none" stroke="black" cx="96" cy="-377" rx="27" ry="18"/>
<text text-anchor="middle" x="96" y="-373.3" font-family="Times New Roman,serif" font-size="14.00">6</text>
</g>
<!-- 7 -->
<g id="node10" class="node">
<title>7</title>
<ellipse fill="none" stroke="black" cx="27" cy="-290" rx="27" ry="18"/>
<text text-anchor="middle" x="27" y="-286.3" font-family="Times New Roman,serif" font-size="14.00">7</text>
</g>
<!-- 6&#45;&gt;7 -->
<g id="edge5" class="edge">
<title>6&#45;&gt;7</title>
<path fill="none" stroke="black" d="M83.66,-360.8C73.07,-347.75 57.63,-328.73 45.55,-313.84"/>
<polygon fill="black" stroke="black" points="48.25,-311.62 39.23,-306.06 42.81,-316.03 48.25,-311.62"/>
<text text-anchor="middle" x="85" y="-329.8" font-family="Times New Roman,serif" font-size="14.00">epsilon</text>
</g>
<!-- 1 -->
<g id="node11" class="node">
<title>1</title>
<ellipse fill="none" stroke="black" cx="90" cy="-638" rx="27" ry="18"/>
<text text-anchor="middle" x="90" y="-634.3" font-family="Times New Roman,serif" font-size="14.00">1</text>
</g>
<!-- 6&#45;&gt;1 -->
<g id="edge4" class="edge">
<title>6&#45;&gt;1</title>
<path fill="none" stroke="black" d="M93.94,-395.34C91.25,-418.96 86.68,-462.61 85,-500 83.29,-537.99 85.66,-581.93 87.69,-609.59"/>
<polygon fill="black" stroke="black" points="84.21,-609.99 88.47,-619.69 91.19,-609.45 84.21,-609.99"/>
<text text-anchor="middle" x="105" y="-503.8" font-family="Times New Roman,serif" font-size="14.00">epsilon</text>
</g>
<!-- 4 -->
<g id="node4" class="node">
<title>4</title>
<ellipse fill="none" stroke="black" cx="201" cy="-551" rx="27" ry="18"/>
<text text-anchor="middle" x="201" y="-547.3" font-family="Times New Roman,serif" font-size="14.00">4</text>
</g>
<!-- 5 -->
<g id="node12" class="node">
<title>5</title>
<ellipse fill="none" stroke="black" cx="201" cy="-464" rx="27" ry="18"/>
<text text-anchor="middle" x="201" y="-460.3" font-family="Times New Roman,serif" font-size="14.00">5</text>
</g>
<!-- 4&#45;&gt;5 -->
<g id="edge9" class="edge">
<title>4&#45;&gt;5</title>
<path fill="none" stroke="black" d="M201,-532.8C201,-521.16 201,-505.54 201,-492.23"/>
<polygon fill="black" stroke="black" points="204.5,-492.17 201,-482.17 197.5,-492.17 204.5,-492.17"/>
<text text-anchor="middle" x="205" y="-503.8" font-family="Times New Roman,serif" font-size="14.00">b</text>
</g>
<!-- 9 -->
<g id="node5" class="node">
<title>9</title>
<ellipse fill="none" stroke="black" cx="27" cy="-116" rx="27" ry="18"/>
<text text-anchor="middle" x="27" y="-112.3" font-family="Times New Roman,serif" font-size="14.00">9</text>
</g>
<!-- 10 -->
<g id="node6" class="node">
<title>10</title>
<ellipse fill="none" stroke="black" cx="27" cy="-23.5" rx="19.5" ry="19.5"/>
<ellipse fill="none" stroke="black" cx="27" cy="-23.5" rx="23.5" ry="23.5"/>
<text text-anchor="middle" x="27" y="-19.8" font-family="Times New Roman,serif" font-size="14.00">10</text>
</g>
<!-- 9&#45;&gt;10 -->
<g id="edge14" class="edge">
<title>9&#45;&gt;10</title>
<path fill="none" stroke="black" d="M27,-97.97C27,-86.55 27,-71.13 27,-57.36"/>
<polygon fill="black" stroke="black" points="30.5,-57.25 27,-47.25 23.5,-57.25 30.5,-57.25"/>
<text text-anchor="middle" x="31" y="-68.8" font-family="Times New Roman,serif" font-size="14.00">b</text>
</g>
<!-- 3&#45;&gt;6 -->
<g id="edge10" class="edge">
<title>3&#45;&gt;6</title>
<path fill="none" stroke="black" d="M122.48,-446.2C117.82,-434.21 111.47,-417.85 106.16,-404.15"/>
<polygon fill="black" stroke="black" points="109.39,-402.81 102.51,-394.75 102.86,-405.34 109.39,-402.81"/>
<text text-anchor="middle" x="134" y="-416.8" font-family="Times New Roman,serif" font-size="14.00">epsilon</text>
</g>
<!-- 0&#45;&gt;7 -->
<g id="edge3" class="edge">
<title>0&#45;&gt;7</title>
<path fill="none" stroke="black" d="M27.41,-707.45C20.38,-690.6 11,-663.53 11,-639 11,-639 11,-639 11,-376 11,-356.29 15.21,-334.45 19.3,-317.84"/>
<polygon fill="black" stroke="black" points="22.8,-318.32 21.94,-307.76 16.02,-316.55 22.8,-318.32"/>
<text text-anchor="middle" x="31" y="-503.8" font-family="Times New Roman,serif" font-size="14.00">epsilon</text>
</g>
<!-- 0&#45;&gt;1 -->
<g id="edge2" class="edge">
<title>0&#45;&gt;1</title>
<path fill="none" stroke="black" d="M45.35,-708.01C53.49,-695.42 64.97,-677.68 74.26,-663.33"/>
<polygon fill="black" stroke="black" points="77.21,-665.21 79.7,-654.91 71.33,-661.41 77.21,-665.21"/>
<text text-anchor="middle" x="85" y="-677.8" font-family="Times New Roman,serif" font-size="14.00">epsilon</text>
</g>
<!-- 8 -->
<g id="node9" class="node">
<title>8</title>
<ellipse fill="none" stroke="black" cx="27" cy="-203" rx="27" ry="18"/>
<text text-anchor="middle" x="27" y="-199.3" font-family="Times New Roman,serif" font-size="14.00">8</text>
</g>
<!-- 8&#45;&gt;9 -->
<g id="edge13" class="edge">
<title>8&#45;&gt;9</title>
<path fill="none" stroke="black" d="M27,-184.8C27,-173.16 27,-157.54 27,-144.23"/>
<polygon fill="black" stroke="black" points="30.5,-144.17 27,-134.17 23.5,-144.17 30.5,-144.17"/>
<text text-anchor="middle" x="31" y="-155.8" font-family="Times New Roman,serif" font-size="14.00">b</text>
</g>
<!-- 7&#45;&gt;8 -->
<g id="edge12" class="edge">
<title>7&#45;&gt;8</title>
<path fill="none" stroke="black" d="M27,-271.8C27,-260.16 27,-244.54 27,-231.23"/>
<polygon fill="black" stroke="black" points="30.5,-231.17 27,-221.17 23.5,-231.17 30.5,-231.17"/>
<text text-anchor="middle" x="30.5" y="-242.8" font-family="Times New Roman,serif" font-size="14.00">a</text>
</g>
<!-- 1&#45;&gt;2 -->
<g id="edge6" class="edge">
<title>1&#45;&gt;2</title>
<path fill="none" stroke="black" d="M97.52,-620.61C103.13,-608.38 110.9,-591.44 117.32,-577.45"/>
<polygon fill="black" stroke="black" points="120.51,-578.88 121.5,-568.34 114.15,-575.96 120.51,-578.88"/>
<text text-anchor="middle" x="131" y="-590.8" font-family="Times New Roman,serif" font-size="14.00">epsilon</text>
</g>
<!-- 1&#45;&gt;4 -->
<g id="edge7" class="edge">
<title>1&#45;&gt;4</title>
<path fill="none" stroke="black" d="M112.18,-627.34C125.29,-621.08 141.84,-612.22 155,-602 165.09,-594.16 174.87,-584.01 182.8,-574.9"/>
<polygon fill="black" stroke="black" points="185.48,-577.15 189.26,-567.25 180.13,-572.64 185.48,-577.15"/>
<text text-anchor="middle" x="191" y="-590.8" font-family="Times New Roman,serif" font-size="14.00">epsilon</text>
</g>
<!-- 5&#45;&gt;6 -->
<g id="edge11" class="edge">
<title>5&#45;&gt;6</title>
<path fill="none" stroke="black" d="M189.8,-447.31C181.75,-436.77 170.21,-423.02 158,-413 148.64,-405.31 137.36,-398.38 127,-392.75"/>
<polygon fill="black" stroke="black" points="128.31,-389.49 117.83,-387.97 125.07,-395.7 128.31,-389.49"/>
<text text-anchor="middle" x="193" y="-416.8" font-family="Times New Roman,serif" font-size="14.00">epsilon</text>
</g>
</g>
</svg>
