<?xml version="1.0" encoding="UTF-8" standalone="no"?>
<!DOCTYPE svg PUBLIC "-//W3C//DTD SVG 1.1//EN"
 "http://www.w3.org/Graphics/SVG/1.1/DTD/svg11.dtd">
<!-- Generated by graphviz version 3.0.0 (20220226.1711)
 -->
<!-- Pages: 1 -->
<svg width="221pt" height="824pt"
 viewBox="0.00 0.00 221.24 824.00" xmlns="http://www.w3.org/2000/svg" xmlns:xlink="http://www.w3.org/1999/xlink">
<g id="graph0" class="graph" transform="scale(1 1) rotate(0) translate(4 820)">
<polygon fill="white" stroke="transparent" points="-4,4 -4,-820 217.24,-820 217.24,4 -4,4"/>
<!-- fake0 -->
<g id="node1" class="node">
<title>fake0</title>
</g>
<!-- 0 -->
<g id="node12" class="node">
<title>0</title>
<ellipse fill="none" stroke="black" cx="114.24" cy="-725" rx="27" ry="18"/>
<text text-anchor="middle" x="114.24" y="-721.3" font-family="Times New Roman,serif" font-size="14.00">0</text>
</g>
<!-- fake0&#45;&gt;0 -->
<g id="edge1" class="edge">
<title>fake0&#45;&gt;0</title>
<path fill="none" stroke="black" stroke-width="2" d="M114.24,-779.81C114.24,-771.79 114.24,-762.04 114.24,-753.07"/>
<polygon fill="black" stroke="black" stroke-width="2" points="117.74,-753.03 114.24,-743.03 110.74,-753.03 117.74,-753.03"/>
</g>
<!-- 8 -->
<g id="node2" class="node">
<title>8</title>
<ellipse fill="none" stroke="black" cx="114.24" cy="-203" rx="27" ry="18"/>
<text text-anchor="middle" x="114.24" y="-199.3" font-family="Times New Roman,serif" font-size="14.00">8</text>
</g>
<!-- 9 -->
<g id="node6" class="node">
<title>9</title>
<ellipse fill="none" stroke="black" cx="114.24" cy="-116" rx="27" ry="18"/>
<text text-anchor="middle" x="114.24" y="-112.3" font-family="Times New Roman,serif" font-size="14.00">9</text>
</g>
<!-- 8&#45;&gt;9 -->
<g id="edge13" class="edge">
<title>8&#45;&gt;9</title>
<path fill="none" stroke="black" d="M114.24,-184.8C114.24,-173.16 114.24,-157.54 114.24,-144.23"/>
<polygon fill="black" stroke="black" points="117.74,-144.17 114.24,-134.17 110.74,-144.17 117.74,-144.17"/>
<text text-anchor="middle" x="118.24" y="-155.8" font-family="Times New Roman,serif" font-size="14.00">b</text>
</g>
<!-- 3 -->
<g id="node3" class="node">
<title>3</title>
<ellipse fill="none" stroke="black" cx="118.24" cy="-464" rx="27" ry="18"/>
<text text-anchor="middle" x="118.24" y="-460.3" font-family="Times New Roman,serif" font-size="14.00">3</text>
</g>
<!-- 6 -->
<g id="node5" class="node">
<title>6</title>
<ellipse fill="none" stroke="black" cx="65.24" cy="-377" rx="27" ry="18"/>
<text text-anchor="middle" x="65.24" y="-373.3" font-family="Times New Roman,serif" font-size="14.00">6</text>
</g>
<!-- 3&#45;&gt;6 -->
<g id="edge10" class="edge">
<title>3&#45;&gt;6</title>
<path fill="none" stroke="black" d="M111.42,-446.24C107.07,-436.27 100.99,-423.54 94.24,-413 91.56,-408.81 88.44,-404.57 85.27,-400.55"/>
<polygon fill="black" stroke="black" points="87.86,-398.19 78.79,-392.71 82.46,-402.65 87.86,-398.19"/>
<text text-anchor="middle" x="122.24" y="-416.8" font-family="Times New Roman,serif" font-size="14.00">epsilon</text>
</g>
<!-- 10 -->
<g id="node4" class="node">
<title>10</title>
<ellipse fill="none" stroke="black" cx="114.24" cy="-23.5" rx="19.5" ry="19.5"/>
<ellipse fill="none" stroke="black" cx="114.24" cy="-23.5" rx="23.5" ry="23.5"/>
<text text-anchor="middle" x="114.24" y="-19.8" font-family="Times New Roman,serif" font-size="14.00">10</text>
</g>
<!-- 1 -->
<g id="node8" class="node">
<title>1</title>
<ellipse fill="none" stroke="black" cx="65.24" cy="-638" rx="27" ry="18"/>
<text text-anchor="middle" x="65.24" y="-634.3" font-family="Times New Roman,serif" font-size="14.00">1</text>
</g>
<!-- 6&#45;&gt;1 -->
<g id="edge4" class="edge">
<title>6&#45;&gt;1</title>
<path fill="none" stroke="black" d="M49.97,-392.08C37.16,-404.85 19.51,-424.86 10.24,-446 -2.17,-474.27 -0.03,-484.21 2.24,-515 4.02,-539.19 0.49,-546.78 10.24,-569 17.92,-586.5 31.34,-603.23 43.01,-615.72"/>
<polygon fill="black" stroke="black" points="40.5,-618.16 49.97,-622.91 45.53,-613.29 40.5,-618.16"/>
<text text-anchor="middle" x="22.24" y="-503.8" font-family="Times New Roman,serif" font-size="14.00">epsilon</text>
</g>
<!-- 7 -->
<g id="node11" class="node">
<title>7</title>
<ellipse fill="none" stroke="black" cx="114.24" cy="-290" rx="27" ry="18"/>
<text text-anchor="middle" x="114.24" y="-286.3" font-family="Times New Roman,serif" font-size="14.00">7</text>
</g>
<!-- 6&#45;&gt;7 -->
<g id="edge5" class="edge">
<title>6&#45;&gt;7</title>
<path fill="none" stroke="black" d="M74.45,-360.01C81.59,-347.62 91.62,-330.23 99.82,-316.01"/>
<polygon fill="black" stroke="black" points="102.93,-317.61 104.89,-307.2 96.87,-314.12 102.93,-317.61"/>
<text text-anchor="middle" x="112.24" y="-329.8" font-family="Times New Roman,serif" font-size="14.00">epsilon</text>
</g>
<!-- 9&#45;&gt;10 -->
<g id="edge14" class="edge">
<title>9&#45;&gt;10</title>
<path fill="none" stroke="black" d="M114.24,-97.97C114.24,-86.55 114.24,-71.13 114.24,-57.36"/>
<polygon fill="black" stroke="black" points="117.74,-57.25 114.24,-47.25 110.74,-57.25 117.74,-57.25"/>
<text text-anchor="middle" x="118.24" y="-68.8" font-family="Times New Roman,serif" font-size="14.00">b</text>
</g>
<!-- 4 -->
<g id="node7" class="node">
<title>4</title>
<ellipse fill="none" stroke="black" cx="46.24" cy="-551" rx="27" ry="18"/>
<text text-anchor="middle" x="46.24" y="-547.3" font-family="Times New Roman,serif" font-size="14.00">4</text>
</g>
<!-- 5 -->
<g id="node9" class="node">
<title>5</title>
<ellipse fill="none" stroke="black" cx="46.24" cy="-464" rx="27" ry="18"/>
<text text-anchor="middle" x="46.24" y="-460.3" font-family="Times New Roman,serif" font-size="14.00">5</text>
</g>
<!-- 4&#45;&gt;5 -->
<g id="edge9" class="edge">
<title>4&#45;&gt;5</title>
<path fill="none" stroke="black" d="M46.24,-532.8C46.24,-521.16 46.24,-505.54 46.24,-492.23"/>
<polygon fill="black" stroke="black" points="49.74,-492.17 46.24,-482.17 42.74,-492.17 49.74,-492.17"/>
<text text-anchor="middle" x="50.24" y="-503.8" font-family="Times New Roman,serif" font-size="14.00">b</text>
</g>
<!-- 1&#45;&gt;4 -->
<g id="edge6" class="edge">
<title>1&#45;&gt;4</title>
<path fill="none" stroke="black" d="M59.47,-620.4C57.62,-614.62 55.67,-608.07 54.24,-602 52.51,-594.67 51.04,-586.65 49.85,-579.22"/>
<polygon fill="black" stroke="black" points="53.3,-578.62 48.36,-569.24 46.38,-579.65 53.3,-578.62"/>
<text text-anchor="middle" x="74.24" y="-590.8" font-family="Times New Roman,serif" font-size="14.00">epsilon</text>
</g>
<!-- 2 -->
<g id="node10" class="node">
<title>2</title>
<ellipse fill="none" stroke="black" cx="118.24" cy="-551" rx="27" ry="18"/>
<text text-anchor="middle" x="118.24" y="-547.3" font-family="Times New Roman,serif" font-size="14.00">2</text>
</g>
<!-- 1&#45;&gt;2 -->
<g id="edge7" class="edge">
<title>1&#45;&gt;2</title>
<path fill="none" stroke="black" d="M78.79,-622.28C83.98,-616.25 89.72,-609.04 94.24,-602 99.04,-594.5 103.5,-585.9 107.24,-577.97"/>
<polygon fill="black" stroke="black" points="110.48,-579.3 111.42,-568.75 104.11,-576.41 110.48,-579.3"/>
<text text-anchor="middle" x="122.24" y="-590.8" font-family="Times New Roman,serif" font-size="14.00">epsilon</text>
</g>
<!-- 5&#45;&gt;6 -->
<g id="edge11" class="edge">
<title>5&#45;&gt;6</title>
<path fill="none" stroke="black" d="M48.36,-445.75C49.72,-436.06 51.69,-423.78 54.24,-413 54.91,-410.15 55.69,-407.2 56.53,-404.27"/>
<polygon fill="black" stroke="black" points="59.91,-405.18 59.47,-394.59 53.21,-403.14 59.91,-405.18"/>
<text text-anchor="middle" x="74.24" y="-416.8" font-family="Times New Roman,serif" font-size="14.00">epsilon</text>
</g>
<!-- 2&#45;&gt;3 -->
<g id="edge8" class="edge">
<title>2&#45;&gt;3</title>
<path fill="none" stroke="black" d="M118.24,-532.8C118.24,-521.16 118.24,-505.54 118.24,-492.23"/>
<polygon fill="black" stroke="black" points="121.74,-492.17 118.24,-482.17 114.74,-492.17 121.74,-492.17"/>
<text text-anchor="middle" x="121.74" y="-503.8" font-family="Times New Roman,serif" font-size="14.00">a</text>
</g>
<!-- 7&#45;&gt;8 -->
<g id="edge12" class="edge">
<title>7&#45;&gt;8</title>
<path fill="none" stroke="black" d="M114.24,-271.8C114.24,-260.16 114.24,-244.54 114.24,-231.23"/>
<polygon fill="black" stroke="black" points="117.74,-231.17 114.24,-221.17 110.74,-231.17 117.74,-231.17"/>
<text text-anchor="middle" x="117.74" y="-242.8" font-family="Times New Roman,serif" font-size="14.00">a</text>
</g>
<!-- 0&#45;&gt;1 -->
<g id="edge2" class="edge">
<title>0&#45;&gt;1</title>
<path fill="none" stroke="black" d="M105.02,-708.01C97.88,-695.62 87.85,-678.23 79.65,-664.01"/>
<polygon fill="black" stroke="black" points="82.6,-662.12 74.58,-655.2 76.54,-665.61 82.6,-662.12"/>
<text text-anchor="middle" x="112.24" y="-677.8" font-family="Times New Roman,serif" font-size="14.00">epsilon</text>
</g>
<!-- 0&#45;&gt;7 -->
<g id="edge3" class="edge">
<title>0&#45;&gt;7</title>
<path fill="none" stroke="black" d="M131.3,-710.65C148.73,-695.38 173.24,-668.64 173.24,-639 173.24,-639 173.24,-639 173.24,-376 173.24,-350.52 155.13,-327.19 138.98,-311.44"/>
<polygon fill="black" stroke="black" points="141.02,-308.56 131.3,-304.35 136.27,-313.7 141.02,-308.56"/>
<text text-anchor="middle" x="193.24" y="-503.8" font-family="Times New Roman,serif" font-size="14.00">epsilon</text>
</g>
</g>
</svg>
